<svg id="visual" viewBox="0 0 900 600" width="900" height="600" xmlns="http://www.w3.org/2000/svg" xmlns:xlink="http://www.w3.org/1999/xlink" version="1.1"><rect x="0" y="0" width="900" height="600" fill="#001220"></rect><path d="M0 392L21.5 387.7C43 383.3 86 374.7 128.8 372C171.7 369.3 214.3 372.7 257.2 378.7C300 384.7 343 393.3 385.8 403.3C428.7 413.3 471.3 424.7 514.2 426.3C557 428 600 420 642.8 420.3C685.7 420.7 728.3 429.3 771.2 422C814 414.7 857 391.3 878.5 379.7L900 368L900 601L878.5 601C857 601 814 601 771.2 601C728.3 601 685.7 601 642.8 601C600 601 557 601 514.2 601C471.3 601 428.7 601 385.8 601C343 601 300 601 257.2 601C214.3 601 171.7 601 128.8 601C86 601 43 601 21.5 601L0 601Z" fill="#fa7268"></path><path d="M0 410L21.5 407.3C43 404.7 86 399.3 128.8 404.7C171.7 410 214.3 426 257.2 435.5C300 445 343 448 385.8 441.8C428.7 435.7 471.3 420.3 514.2 414.8C557 409.3 600 413.7 642.8 413.7C685.7 413.7 728.3 409.3 771.2 413.8C814 418.3 857 431.7 878.5 438.3L900 445L900 601L878.5 601C857 601 814 601 771.2 601C728.3 601 685.7 601 642.8 601C600 601 557 601 514.2 601C471.3 601 428.7 601 385.8 601C343 601 300 601 257.2 601C214.3 601 171.7 601 128.8 601C86 601 43 601 21.5 601L0 601Z" fill="#ef5f67"></path><path d="M0 495L21.5 489.7C43 484.3 86 473.7 128.8 472.7C171.7 471.7 214.3 480.3 257.2 486.3C300 492.3 343 495.7 385.8 488C428.7 480.3 471.3 461.7 514.2 460.2C557 458.7 600 474.3 642.8 481.7C685.7 489 728.3 488 771.2 490.3C814 492.7 857 498.3 878.5 501.2L900 504L900 601L878.5 601C857 601 814 601 771.2 601C728.3 601 685.7 601 642.8 601C600 601 557 601 514.2 601C471.3 601 428.7 601 385.8 601C343 601 300 601 257.2 601C214.3 601 171.7 601 128.8 601C86 601 43 601 21.5 601L0 601Z" fill="#e34c67"></path><path d="M0 518L21.5 516.2C43 514.3 86 510.7 128.8 507.8C171.7 505 214.3 503 257.2 499.8C300 496.7 343 492.3 385.8 490.3C428.7 488.3 471.3 488.7 514.2 495.5C557 502.3 600 515.7 642.8 519.7C685.7 523.7 728.3 518.3 771.2 518.2C814 518 857 523 878.5 525.5L900 528L900 601L878.5 601C857 601 814 601 771.2 601C728.3 601 685.7 601 642.8 601C600 601 557 601 514.2 601C471.3 601 428.7 601 385.8 601C343 601 300 601 257.2 601C214.3 601 171.7 601 128.8 601C86 601 43 601 21.5 601L0 601Z" fill="#d53867"></path><path d="M0 533L21.5 538C43 543 86 553 128.8 552.3C171.7 551.7 214.3 540.3 257.2 541.7C300 543 343 557 385.8 556.7C428.7 556.3 471.3 541.7 514.2 536.3C557 531 600 535 642.8 535.2C685.7 535.3 728.3 531.7 771.2 534.8C814 538 857 548 878.5 553L900 558L900 601L878.5 601C857 601 814 601 771.2 601C728.3 601 685.7 601 642.8 601C600 601 557 601 514.2 601C471.3 601 428.7 601 385.8 601C343 601 300 601 257.2 601C214.3 601 171.7 601 128.8 601C86 601 43 601 21.5 601L0 601Z" fill="#c62368"></path></svg>